<svg viewBox="0 0 119 26" fill="currentColor" xmlns="http://www.w3.org/2000/svg">
<path fill-rule="evenodd" clip-rule="evenodd" d="M113 26H6C2.686 26 0 23.314 0 20V6C0 2.686 2.686 0 6 0H113C116.314 0 119 2.686 119 6V20C119 23.314 116.314 26 113 26ZM118 6C118 3.239 115.761 1 113 1H6C3.239 1 1 3.239 1 6V20C1 22.761 3.239 25 6 25H113C115.761 25 118 22.761 118 20V6Z" fill="current"/>
<path fill-rule="evenodd" clip-rule="evenodd" d="M60.6998 18.437H59.3948L60.4048 15.943L58.3948 10.871H59.7738L61.0368 14.323L62.3098 10.871H63.6888L60.6998 18.437ZM55.6898 16.259C55.2378 16.259 54.7738 16.091 54.3538 15.764V16.133H53.0068V8.56598H54.3538V11.229C54.7738 10.913 55.2378 10.745 55.6898 10.745C57.0998 10.745 58.0678 11.881 58.0678 13.502C58.0678 15.122 57.0998 16.259 55.6898 16.259ZM55.4058 11.902C55.0378 11.902 54.6688 12.06 54.3538 12.376V14.628C54.6688 14.943 55.0378 15.101 55.4058 15.101C56.1638 15.101 56.6898 14.449 56.6898 13.502C56.6898 12.555 56.1638 11.902 55.4058 11.902ZM47.5538 15.764C47.1438 16.091 46.6808 16.259 46.2178 16.259C44.8178 16.259 43.8398 15.122 43.8398 13.502C43.8398 11.881 44.8178 10.745 46.2178 10.745C46.6808 10.745 47.1438 10.913 47.5538 11.229V8.56598H48.9118V16.133H47.5538V15.764ZM47.5538 12.376C47.2488 12.06 46.8808 11.902 46.5128 11.902C45.7438 11.902 45.2178 12.555 45.2178 13.502C45.2178 14.449 45.7438 15.101 46.5128 15.101C46.8808 15.101 47.2488 14.943 47.5538 14.628V12.376ZM39.5348 13.87C39.6188 14.67 40.2508 15.217 41.1338 15.217C41.6188 15.217 42.1548 15.038 42.7018 14.722V15.849C42.1028 16.122 41.5028 16.259 40.9128 16.259C39.3238 16.259 38.2088 15.101 38.2088 13.46C38.2088 11.871 39.3028 10.745 40.8078 10.745C42.1868 10.745 43.1228 11.829 43.1228 13.375C43.1228 13.523 43.1228 13.691 43.1018 13.87H39.5348ZM40.7558 11.786C40.1028 11.786 39.5978 12.271 39.5348 12.997H41.8288C41.7868 12.281 41.3558 11.786 40.7558 11.786ZM35.9878 12.618V16.133H34.6408V10.871H35.9878V11.397C36.3668 10.976 36.8298 10.745 37.2818 10.745C37.4298 10.745 37.5768 10.755 37.7238 10.797V11.997C37.5768 11.955 37.4088 11.934 37.2508 11.934C36.8088 11.934 36.3348 12.176 35.9878 12.618ZM29.9788 13.87C30.0628 14.67 30.6938 15.217 31.5778 15.217C32.0618 15.217 32.5988 15.038 33.1458 14.722V15.849C32.5458 16.122 31.9458 16.259 31.3568 16.259C29.7678 16.259 28.6528 15.101 28.6528 13.46C28.6528 11.871 29.7468 10.745 31.2518 10.745C32.6298 10.745 33.5668 11.829 33.5668 13.375C33.5668 13.523 33.5668 13.691 33.5458 13.87H29.9788ZM31.1988 11.786C30.5468 11.786 30.0418 12.271 29.9788 12.997H32.2728C32.2308 12.281 31.7988 11.786 31.1988 11.786ZM25.2738 16.133L24.1998 12.555L23.1368 16.133H21.9268L20.1168 10.871H21.4638L22.5268 14.449L23.5898 10.871H24.8098L25.8728 14.449L26.9358 10.871H28.2828L26.4838 16.133H25.2738ZM17.0428 16.259C15.4538 16.259 14.3278 15.112 14.3278 13.502C14.3278 11.881 15.4538 10.745 17.0428 10.745C18.6318 10.745 19.7478 11.881 19.7478 13.502C19.7478 15.112 18.6318 16.259 17.0428 16.259ZM17.0428 11.871C16.2538 11.871 15.7068 12.534 15.7068 13.502C15.7068 14.47 16.2538 15.133 17.0428 15.133C17.8218 15.133 18.3688 14.47 18.3688 13.502C18.3688 12.534 17.8218 11.871 17.0428 11.871ZM11.1278 13.533H9.9178V16.133H8.5708V8.89198H11.1278C12.6018 8.89198 13.6538 9.84998 13.6538 11.218C13.6538 12.586 12.6018 13.533 11.1278 13.533ZM10.9388 9.98698H9.9178V12.439H10.9388C11.7178 12.439 12.2648 11.944 12.2648 11.218C12.2648 10.482 11.7178 9.98698 10.9388 9.98698Z" fill="current"/>
<path fill-rule="evenodd" clip-rule="evenodd" d="M111.116 14.051H105.557C105.684 15.382 106.659 15.774 107.766 15.774C108.893 15.774 109.781 15.536 110.555 15.146V17.433C109.784 17.861 108.765 18.169 107.408 18.169C104.642 18.169 102.704 16.437 102.704 13.013C102.704 10.121 104.348 7.82498 107.049 7.82498C109.746 7.82498 111.154 10.12 111.154 13.028C111.154 13.303 111.129 13.898 111.116 14.051ZM107.031 10.14C106.321 10.14 105.532 10.676 105.532 11.955H108.468C108.468 10.677 107.728 10.14 107.031 10.14ZM98.1079 18.169C97.1139 18.169 96.5069 17.75 96.0989 17.451L96.0929 20.664L93.2539 21.268L93.2529 8.01398H95.7529L95.9009 8.71498C96.2929 8.34898 97.0119 7.82498 98.1249 7.82498C100.119 7.82498 101.997 9.62098 101.997 12.927C101.997 16.535 100.139 18.169 98.1079 18.169ZM97.4459 10.34C96.7949 10.34 96.3859 10.578 96.0899 10.903L96.1069 15.122C96.3829 15.421 96.7799 15.661 97.4459 15.661C98.4959 15.661 99.1999 14.518 99.1999 12.989C99.1999 11.504 98.4849 10.34 97.4459 10.34ZM89.1489 8.01398H91.9989V17.966H89.1489V8.01398ZM89.1489 4.83598L91.9989 4.22998V6.54298L89.1489 7.14898V4.83598ZM86.1099 11.219V17.966H83.2719V8.01398H85.7269L85.9049 8.85298C86.5699 7.63098 87.8969 7.87898 88.2749 8.01498V10.625C87.9139 10.508 86.7809 10.338 86.1099 11.219ZM80.0239 14.475C80.0239 16.148 81.8159 15.627 82.1789 15.482V17.793C81.8009 18.001 81.1149 18.169 80.1869 18.169C78.5019 18.169 77.2369 16.928 77.2369 15.247L77.2499 6.13798L80.0219 5.54798L80.0239 8.01398H82.1799V10.435H80.0239V14.475ZM76.4849 14.959C76.4849 17.003 74.8579 18.169 72.4969 18.169C71.5179 18.169 70.4479 17.979 69.3919 17.525V14.814C70.3449 15.332 71.5589 15.721 72.4999 15.721C73.1329 15.721 73.5889 15.551 73.5889 15.026C73.5889 13.671 69.2729 14.181 69.2729 11.038C69.2729 9.02798 70.8079 7.82498 73.1109 7.82498C74.0519 7.82498 74.9919 7.96898 75.9329 8.34398V11.019C75.0689 10.552 73.9719 10.288 73.1089 10.288C72.5139 10.288 72.1439 10.46 72.1439 10.903C72.1439 12.181 76.4849 11.573 76.4849 14.959Z" fill="current"/>
</svg>
